<svg width="109" height="24" viewBox="0 0 109 24" fill="none" xmlns="http://www.w3.org/2000/svg">
<path d="M54.2499 2C45.3085 2 36.5679 2.58649 29.1335 3.6853C21.699 4.78412 15.9045 6.3459 12.4828 8.17317C9.06109 10.0004 8.16582 12.0111 9.91019 13.9509C11.6546 15.8907 15.9602 17.6725 22.2827 19.0711C28.6052 20.4696 36.6606 21.422 45.4301 21.8079C54.1997 22.1937 63.2896 21.9957 71.5503 21.2388C79.8111 20.4819 86.8716 19.2002 91.8392 17.5557C96.8068 15.9112 99.4582 13.9778 99.4582 12C99.445 9.34873 94.6778 6.80688 86.2024 4.93215C77.7271 3.05742 66.2358 2.00291 54.2499 2V2ZM54.2499 20C47.0968 20 40.1043 19.5308 34.1567 18.6518C28.2092 17.7727 23.5736 16.5233 20.8362 15.0615C18.0988 13.5997 17.3826 11.9911 18.7781 10.4393C20.1736 8.88743 23.6182 7.46197 28.6762 6.34315C33.7342 5.22433 40.1784 4.4624 47.1941 4.15372C54.2097 3.84504 61.4816 4.00346 68.0902 4.60896C74.6988 5.21447 80.3473 6.23984 84.3213 7.55544C88.2954 8.87103 90.4165 10.4177 90.4165 12C90.4057 14.121 86.5919 16.1544 79.8117 17.6542C73.0314 19.154 63.8385 19.9976 54.2499 20V20Z" fill="#F86338"/>
<path d="M73.6577 8.29297L49.7289 13.586L39.3627 11.293L32.9702 12.707L49.7289 16.414L80.0502 9.70697L73.6577 8.29297Z" fill="#F86338"/>
</svg>
