<svg width="107" height="24" viewBox="0 0 107 24" fill="none" xmlns="http://www.w3.org/2000/svg">
<path fill-rule="evenodd" clip-rule="evenodd" d="M53.25 2C70.4231 2 84.3125 5.13 84.3125 9C84.3125 14.25 53.25 22 53.25 22C53.25 22 22.1875 14.25 22.1875 9C22.1875 5.13 36.0769 2 53.25 2ZM31.0625 9C31.0625 11.85 44.02 16.21 53.25 18.88C62.6575 16.19 75.4375 11.88 75.4375 9C75.4375 6.24 65.4975 4 53.25 4C41.0025 4 31.0625 6.24 31.0625 9ZM53.25 11.5C47.1231 11.5 42.1562 10.3807 42.1562 9C42.1562 7.61929 47.1231 6.5 53.25 6.5C59.3769 6.5 64.3438 7.61929 64.3438 9C64.3438 10.3807 59.3769 11.5 53.25 11.5Z" fill="white"/>
</svg>
