<svg width="240" height="96" viewBox="0 0 240 96" fill="none" xmlns="http://www.w3.org/2000/svg">
<g clip-path="url(#clip0_1806_1431)">
<path d="M0 41.7168V50.1588C3.005 50.1568 5.98092 50.7236 8.75748 51.8269C11.534 52.9302 14.0567 54.5482 16.1812 56.5884C18.3052 58.6279 19.9896 61.0492 21.1382 63.714C22.2868 66.3789 22.8769 69.2349 22.875 72.1188H31.6625C31.6546 64.0591 28.3163 56.3315 22.3804 50.6319C16.4444 44.9322 8.39555 41.726 0 41.7168H0Z" fill="white"/>
<path d="M43.9463 26.5195H30.02C37.065 30.8055 43.0345 36.5353 47.5 43.2979V29.9287C47.4994 29.0243 47.1247 28.1572 46.4583 27.5179C45.7919 26.8786 44.8884 26.5195 43.9463 26.5195V26.5195Z" fill="white"/>
<path d="M8.75 26.5195H0V34.1203C10.4947 34.1308 20.5564 38.1376 27.9774 45.2615C35.3984 52.3855 39.5725 62.0446 39.5837 72.1195H47.5V63.7195C45.7102 54.4874 41.05 45.992 34.1331 39.3517C27.2162 32.7115 18.3668 28.2378 8.75 26.5195V26.5195Z" fill="white"/>
<path d="M69.0388 31.5391H63.4613V58.5271H69.0388V31.5391Z" fill="white"/>
<path d="M89.5462 43.2316C88.6177 42.4213 87.5308 41.7961 86.3487 41.392C83.8093 40.536 81.0419 40.536 78.5025 41.392C77.3198 41.7958 76.2325 42.4211 75.3037 43.2316C74.3928 44.0378 73.6651 45.0158 73.1662 46.1044C72.6505 47.292 72.385 48.566 72.385 49.8526C72.385 51.1393 72.6505 52.4132 73.1662 53.6008C73.6633 54.6926 74.3911 55.6733 75.3037 56.4808C76.2309 57.292 77.3176 57.917 78.5 58.3192C81.0391 59.1768 83.8071 59.1768 86.3462 58.3192C87.529 57.917 88.6161 57.292 89.5437 56.4808C90.4559 55.673 91.1837 54.6923 91.6812 53.6008C92.1969 52.4132 92.4624 51.1393 92.4624 49.8526C92.4624 48.566 92.1969 47.292 91.6812 46.1044C91.1827 45.0162 90.4559 44.0382 89.5462 43.2316ZM85.7162 53.0308C84.813 53.8119 83.6405 54.2441 82.425 54.2441C81.2094 54.2441 80.0369 53.8119 79.1337 53.0308C78.3746 52.1312 77.9604 51.0086 77.9604 49.8508C77.9604 48.6931 78.3746 47.5704 79.1337 46.6708C80.0369 45.8898 81.2094 45.4576 82.425 45.4576C83.6405 45.4576 84.813 45.8898 85.7162 46.6708C86.4753 47.5704 86.8895 48.6931 86.8895 49.8508C86.8895 51.0086 86.4753 52.1312 85.7162 53.0308V53.0308Z" fill="white"/>
<path d="M109.57 43.4643H109.5C109.242 43.1166 108.943 42.7993 108.608 42.5187C108.202 42.174 107.752 41.8797 107.27 41.6427C106.051 41.0422 104.698 40.7361 103.328 40.7511C102.127 40.7309 100.939 40.9946 99.8701 41.5191C98.8736 42.0144 97.9937 42.701 97.2851 43.5363C96.5624 44.3972 96.008 45.3766 95.6488 46.4271C95.2668 47.5093 95.0721 48.6444 95.0726 49.7871C95.0584 51.0137 95.2727 52.2328 95.7051 53.3871C96.0968 54.4404 96.7075 55.4064 97.5001 56.2263C98.2896 57.0286 99.2479 57.6606 100.311 58.0803C101.467 58.5327 102.707 58.7571 103.955 58.7403C104.878 58.725 105.791 58.5498 106.65 58.2231C107.613 57.8725 108.447 57.2578 109.049 56.4555H109.124V58.1355C109.145 58.6958 109.049 59.2545 108.841 59.7786C108.633 60.3027 108.319 60.7816 107.915 61.1871C107.403 61.6219 106.805 61.9524 106.156 62.1587C105.507 62.365 104.821 62.4427 104.14 62.3871C103.06 62.3987 101.99 62.1918 100.999 61.7799C100.013 61.3569 99.0927 60.8044 98.2651 60.1383L95.1788 64.5603C96.4403 65.5357 97.9149 66.2252 99.4926 66.5775C101.054 66.9221 102.651 67.0956 104.253 67.0947C107.773 67.0947 110.394 66.2439 112.116 64.5423C113.839 62.8407 114.7 60.3479 114.701 57.0639V41.1795H109.576L109.57 43.4643ZM109.235 51.3711C109.015 51.8791 108.693 52.3403 108.286 52.7283C107.873 53.124 107.388 53.4443 106.855 53.6739C106.302 53.9097 105.703 54.0315 105.098 54.0315C104.493 54.0315 103.894 53.9097 103.341 53.6739C102.816 53.4411 102.337 53.121 101.928 52.7283C101.52 52.337 101.196 51.8723 100.975 51.3609C100.754 50.8494 100.64 50.3012 100.64 49.7475C100.64 49.1938 100.754 48.6456 100.975 48.1341C101.196 47.6226 101.52 47.158 101.928 46.7667C102.337 46.374 102.816 46.0535 103.341 45.8199C103.895 45.5849 104.493 45.4635 105.098 45.4635C105.703 45.4635 106.302 45.5849 106.855 45.8199C107.388 46.0503 107.872 46.371 108.286 46.7667C108.9 47.3587 109.317 48.1118 109.486 48.9311C109.655 49.7504 109.568 50.5993 109.235 51.3711V51.3711Z" fill="white"/>
<path d="M135.655 43.2316C134.726 42.4213 133.64 41.7961 132.457 41.392C129.918 40.536 127.151 40.536 124.611 41.392C123.429 41.7958 122.341 42.4211 121.412 43.2316C120.502 44.0378 119.774 45.0158 119.275 46.1044C118.759 47.292 118.494 48.566 118.494 49.8526C118.494 51.1393 118.759 52.4132 119.275 53.6008C119.772 54.6926 120.5 55.6733 121.412 56.4808C122.34 57.2922 123.428 57.9173 124.611 58.3192C127.15 59.1768 129.918 59.1768 132.457 58.3192C133.64 57.917 134.727 57.292 135.655 56.4808C136.568 55.6733 137.295 54.6926 137.792 53.6008C138.308 52.4132 138.574 51.1393 138.574 49.8526C138.574 48.566 138.308 47.292 137.792 46.1044C137.294 45.0158 136.566 44.0378 135.655 43.2316V43.2316ZM131.825 53.0308C130.922 53.8119 129.749 54.2441 128.534 54.2441C127.318 54.2441 126.146 53.8119 125.242 53.0308C124.483 52.1312 124.069 51.0086 124.069 49.8508C124.069 48.6931 124.483 47.5704 125.242 46.6708C126.146 45.8898 127.318 45.4576 128.534 45.4576C129.749 45.4576 130.922 45.8898 131.825 46.6708C132.584 47.5704 132.998 48.6931 132.998 49.8508C132.998 51.0086 132.584 52.1312 131.825 53.0308Z" fill="white"/>
<path d="M145.972 41.2988H142.981V58.5272H145.972V41.2988Z" fill="white"/>
<path d="M144.477 32.4652C144.187 32.4599 143.899 32.5128 143.632 32.6205C143.364 32.7281 143.123 32.8882 142.924 33.0904C142.62 33.3848 142.413 33.759 142.33 34.1659C142.247 34.5728 142.291 34.9941 142.458 35.3769C142.624 35.7596 142.904 36.0865 143.263 36.3165C143.623 36.5465 144.045 36.6692 144.477 36.6692C144.909 36.6692 145.331 36.5465 145.69 36.3165C146.05 36.0865 146.33 35.7596 146.496 35.3769C146.662 34.9941 146.707 34.5728 146.624 34.1659C146.541 33.759 146.334 33.3848 146.03 33.0904C145.831 32.8881 145.59 32.728 145.323 32.6203C145.055 32.5126 144.767 32.4598 144.477 32.4652V32.4652Z" fill="white"/>
<path d="M168.099 43.4396C167.257 42.6149 166.245 41.9686 165.127 41.5424C163.901 41.0783 162.592 40.8472 161.274 40.862C160.032 40.8483 158.804 41.1134 157.687 41.636C156.588 42.1609 155.615 42.9002 154.83 43.8068H154.75V41.2988H151.762V66.9212H154.75V55.4732H154.826C155.461 56.5231 156.387 57.3837 157.5 57.9596C158.792 58.6543 160.255 59.004 161.736 58.9724C162.949 58.9798 164.15 58.7478 165.265 58.2908C166.342 57.8523 167.314 57.2071 168.121 56.3948C168.941 55.5646 169.586 54.5899 170.02 53.5244C170.94 51.1999 170.94 48.6321 170.02 46.3076C169.582 45.2396 168.929 44.2651 168.099 43.4396V43.4396ZM167.044 52.4396C166.765 53.1897 166.329 53.877 165.762 54.4589C165.196 55.0407 164.511 55.5048 163.75 55.8224C162.068 56.4838 160.182 56.4838 158.5 55.8224C157.738 55.5048 157.052 55.0403 156.485 54.4578C155.918 53.8753 155.481 53.1871 155.202 52.436C154.615 50.8033 154.615 49.0287 155.202 47.396C155.481 46.6449 155.918 45.9567 156.485 45.3742C157.052 44.7917 157.738 44.3272 158.5 44.0096C160.182 43.3482 162.068 43.3482 163.75 44.0096C164.512 44.3272 165.198 44.7917 165.765 45.3742C166.332 45.9567 166.769 46.6449 167.047 47.396C167.635 49.0287 167.635 50.8033 167.047 52.436L167.044 52.4396Z" fill="white"/>
<path d="M185.777 49.92C185.209 49.512 184.576 49.1951 183.902 48.9816C183.163 48.742 182.407 48.5512 181.64 48.4104C181.065 48.3161 180.496 48.1935 179.934 48.0432C179.433 47.9126 178.945 47.74 178.476 47.5272C178.101 47.3636 177.761 47.1322 177.476 46.8456C177.234 46.5893 177.104 46.2533 177.112 45.9072C177.107 45.5338 177.22 45.1676 177.439 44.8584C177.654 44.553 177.935 44.2955 178.262 44.1036C178.613 43.9 178.996 43.751 179.395 43.662C179.804 43.5648 180.224 43.5153 180.645 43.5144C181.447 43.4905 182.239 43.6888 182.926 44.0856C183.547 44.4605 184.066 44.9713 184.441 45.576L186.934 43.9932C186.381 42.947 185.485 42.1054 184.382 41.5992C183.272 41.1041 182.061 40.8528 180.836 40.8636C180.006 40.8617 179.18 40.9732 178.382 41.1948C177.618 41.4041 176.893 41.7281 176.234 42.1548C175.603 42.5633 175.079 43.1047 174.7 43.7376C174.308 44.4116 174.109 45.1737 174.125 45.9456C174.094 46.7012 174.272 47.4513 174.642 48.1188C174.98 48.6771 175.451 49.1502 176.017 49.4988C176.642 49.8771 177.32 50.1684 178.03 50.364C178.797 50.5848 179.603 50.7812 180.446 50.9532C180.933 51.0516 181.406 51.162 181.865 51.2844C182.296 51.3954 182.709 51.5625 183.092 51.7812C183.431 51.9738 183.724 52.2306 183.955 52.536C184.185 52.8743 184.299 53.2734 184.281 53.6772C184.295 54.1015 184.175 54.5198 183.936 54.8772C183.698 55.216 183.384 55.499 183.016 55.7052C182.619 55.9327 182.184 56.095 181.731 56.1852C181.271 56.2822 180.802 56.3317 180.331 56.3328C179.399 56.3674 178.476 56.1504 177.666 55.7064C176.921 55.2513 176.266 54.6737 175.73 54L173.355 55.7676C174.09 56.8637 175.134 57.7374 176.365 58.2876C177.627 58.7684 178.977 59.0002 180.334 58.9692C181.218 58.9699 182.099 58.8712 182.959 58.6752C183.777 58.4936 184.556 58.176 185.26 57.7368C185.933 57.3082 186.489 56.7324 186.885 56.0568C187.314 55.2901 187.526 54.4285 187.5 53.5584C187.524 52.8103 187.367 52.0671 187.04 51.3876C186.743 50.8115 186.311 50.3092 185.777 49.92V49.92Z" fill="white"/>
<path d="M207.327 54.4412V41.2988H204.336V49.6988C204.346 50.6044 204.236 51.5076 204.01 52.3868C203.818 53.1406 203.479 53.8524 203.01 54.4844C202.565 55.072 201.97 55.5408 201.284 55.8464C200.494 56.1831 199.636 56.3471 198.773 56.3264C198.188 56.3718 197.601 56.2818 197.061 56.064C196.52 55.8462 196.042 55.5069 195.666 55.0748C194.948 54.0712 194.596 52.8672 194.666 51.6512V41.2988H191.675V51.938C191.666 52.9024 191.801 53.8631 192.078 54.7904C192.318 55.6125 192.745 56.3735 193.328 57.0188C193.911 57.6497 194.638 58.1426 195.452 58.4588C196.423 58.8225 197.459 58.9979 198.501 58.9748C199.202 58.9803 199.9 58.8869 200.572 58.6976C201.179 58.5279 201.76 58.2805 202.297 57.962C202.787 57.6727 203.232 57.3198 203.62 56.9132C203.969 56.5515 204.26 56.1418 204.484 55.6976H204.56C204.56 56.1896 204.573 56.6696 204.599 57.1376C204.625 57.6056 204.637 58.072 204.636 58.5368H207.475C207.475 57.9712 207.449 57.3452 207.397 56.6588C207.346 55.9724 207.322 55.2332 207.327 54.4412Z" fill="white"/>
<path d="M239.655 45.0737C239.455 44.2401 239.062 43.4606 238.504 42.7937C237.941 42.1484 237.215 41.6526 236.395 41.3537C235.363 40.9962 234.27 40.8276 233.174 40.8569C231.983 40.807 230.805 41.1089 229.799 41.7221C228.866 42.3644 228.083 43.1858 227.499 44.1341C227.345 43.8389 227.147 43.5013 226.904 43.1213C226.633 42.711 226.289 42.3495 225.888 42.0533C225.395 41.6937 224.846 41.4103 224.263 41.2133C223.478 40.9601 222.653 40.8415 221.826 40.8629C221.126 40.8573 220.428 40.9508 219.756 41.1401C219.149 41.3098 218.568 41.5572 218.03 41.8757C217.541 42.1654 217.096 42.5183 216.707 42.9245C216.359 43.2862 216.068 43.6959 215.845 44.1401H215.768C215.768 43.6481 215.755 43.1705 215.73 42.7001C215.705 42.2297 215.691 41.7677 215.691 41.3009H212.854C212.854 41.8665 212.879 42.4925 212.93 43.1789C212.981 43.8653 213.006 44.6017 213.006 45.3881V58.5293H216V50.1365C215.99 49.2305 216.1 48.3269 216.326 47.4473C216.517 46.6933 216.857 45.9813 217.326 45.3497C217.771 44.7619 218.365 44.2931 219.051 43.9877C219.841 43.6508 220.7 43.4868 221.564 43.5077C222.076 43.4657 222.59 43.5546 223.055 43.7654C223.519 43.9762 223.917 44.3013 224.209 44.7077C224.851 45.9703 225.129 47.3749 225.015 48.7757V58.5317H228V48.5885C227.991 47.8799 228.115 47.1756 228.365 46.5089C228.587 45.9179 228.926 45.3741 229.365 44.9081C229.779 44.4718 230.281 44.1211 230.841 43.8773C231.407 43.6312 232.022 43.5056 232.644 43.5089C233.382 43.4831 234.117 43.6215 234.791 43.9133C235.322 44.1596 235.783 44.5267 236.133 44.9825C236.47 45.4338 236.705 45.9475 236.824 46.4909C236.952 47.0595 237.016 47.6396 237.015 48.2213V58.5293H240V48.0737C240.011 47.064 239.895 46.0567 239.655 45.0737Z" fill="white"/>
</g>
<defs>
<clipPath id="clip0_1806_1431">
<rect width="240" height="96" fill="white"/>
</clipPath>
</defs>
</svg>
