<svg width="168" height="33" viewBox="0 0 168 33" fill="none" xmlns="http://www.w3.org/2000/svg">
<path d="M0.979492 11.0615V17.1014C3.0652 17.1 5.13072 17.5056 7.05788 18.2949C8.98503 19.0842 10.736 20.2419 12.2106 21.7016C13.6848 23.1607 14.8539 24.8931 15.6511 26.7997C16.4483 28.7063 16.8579 30.7496 16.8565 32.813H22.9558C22.9503 27.0465 20.6333 21.5178 16.5132 17.4399C12.3932 13.362 6.80667 11.0681 0.979492 11.0615H0.979492Z" fill="black"/>
<path d="M31.4813 0.1875H21.8154C26.7052 3.25394 30.8485 7.35342 33.9479 12.1918V2.62665C33.9475 1.97959 33.6874 1.35918 33.2249 0.901805C32.7623 0.444425 32.1352 0.1875 31.4813 0.1875V0.1875Z" fill="black"/>
<path d="M7.05268 0.1875H0.979492V5.62557C8.26364 5.63307 15.2473 8.49978 20.398 13.5967C25.5488 18.6936 28.4459 25.6043 28.4537 32.8125H33.9482V26.8026C32.7059 20.1974 29.4714 14.1193 24.6706 9.36843C19.8697 4.61761 13.7275 1.41684 7.05268 0.1875V0.1875Z" fill="black"/>
<path d="M48.8976 3.7793H45.0264V23.0881H48.8976V3.7793Z" fill="black"/>
<path d="M63.1309 12.1446C62.4865 11.5649 61.7321 11.1175 60.9116 10.8285C59.1491 10.216 57.2283 10.216 55.4657 10.8285C54.6449 11.1173 53.8902 11.5647 53.2455 12.1446C52.6133 12.7214 52.1082 13.4211 51.7619 14.2C51.404 15.0497 51.2197 15.9611 51.2197 16.8817C51.2197 17.8023 51.404 18.7137 51.7619 19.5634C52.1069 20.3445 52.6121 21.0462 53.2455 21.6239C53.8891 22.2043 54.6433 22.6515 55.464 22.9392C57.2263 23.5528 59.1475 23.5528 60.9099 22.9392C61.7308 22.6515 62.4854 22.2043 63.1292 21.6239C63.7623 21.0459 64.2675 20.3443 64.6128 19.5634C64.9707 18.7137 65.155 17.8023 65.155 16.8817C65.155 15.9611 64.9707 15.0497 64.6128 14.2C64.2668 13.4214 63.7624 12.7217 63.1309 12.1446ZM60.4726 19.1556C59.8458 19.7144 59.0319 20.0236 58.1882 20.0236C57.3445 20.0236 56.5307 19.7144 55.9039 19.1556C55.377 18.5119 55.0895 17.7087 55.0895 16.8804C55.0895 16.0521 55.377 15.2489 55.9039 14.6053C56.5307 14.0465 57.3445 13.7372 58.1882 13.7372C59.0319 13.7372 59.8458 14.0465 60.4726 14.6053C60.9995 15.2489 61.287 16.0521 61.287 16.8804C61.287 17.7087 60.9995 18.5119 60.4726 19.1556V19.1556Z" fill="black"/>
<path d="M77.0297 12.3111H76.9811C76.802 12.0624 76.5941 11.8353 76.3616 11.6346C76.0799 11.388 75.768 11.1774 75.4333 11.0078C74.5871 10.5782 73.6479 10.3592 72.6969 10.3699C71.8635 10.3555 71.0394 10.5442 70.2971 10.9194C69.6055 11.2738 68.9948 11.765 68.5029 12.3626C68.0013 12.9786 67.6165 13.6793 67.3672 14.4309C67.1021 15.2052 66.967 16.0173 66.9673 16.8348C66.9575 17.7124 67.1061 18.5846 67.4063 19.4105C67.6782 20.1641 68.1021 20.8552 68.6521 21.4418C69.2002 22.0158 69.8653 22.468 70.6034 22.7683C71.4058 23.0919 72.2659 23.2525 73.1324 23.2405C73.7733 23.2295 74.407 23.1042 75.0029 22.8704C75.6712 22.6196 76.2502 22.1798 76.6679 21.6058H76.7199V22.8078C76.7344 23.2087 76.6677 23.6084 76.5236 23.9834C76.3795 24.3584 76.161 24.701 75.881 24.9911C75.5256 25.3022 75.1102 25.5386 74.6598 25.6862C74.2095 25.8338 73.7335 25.8894 73.2608 25.8496C72.5113 25.8579 71.7684 25.7099 71.0805 25.4152C70.3961 25.1126 69.7575 24.7173 69.1831 24.2407L67.041 27.4045C67.9166 28.1023 68.94 28.5957 70.0351 28.8477C71.1187 29.0942 72.227 29.2184 73.3389 29.2177C75.782 29.2177 77.6014 28.609 78.797 27.3916C79.9925 26.1741 80.5906 24.3906 80.5911 22.0411V10.6764H77.034L77.0297 12.3111ZM76.7971 17.9681C76.6444 18.3315 76.4206 18.6615 76.1386 18.9391C75.8516 19.2222 75.515 19.4514 75.1452 19.6157C74.7613 19.7844 74.3459 19.8716 73.9258 19.8716C73.5057 19.8716 73.0903 19.7844 72.7064 19.6157C72.3416 19.4491 72.0094 19.2201 71.7252 18.9391C71.4419 18.6592 71.2173 18.3267 71.064 17.9608C70.9107 17.5949 70.8318 17.2026 70.8318 16.8065C70.8318 16.4104 70.9107 16.0181 71.064 15.6522C71.2173 15.2862 71.4419 14.9538 71.7252 14.6738C72.0096 14.3929 72.3417 14.1636 72.7064 13.9964C73.0905 13.8283 73.5058 13.7414 73.9258 13.7414C74.3458 13.7414 74.7612 13.8283 75.1452 13.9964C75.5148 14.1613 75.8514 14.3908 76.1386 14.6738C76.5645 15.0974 76.8543 15.6362 76.9714 16.2224C77.0886 16.8086 77.028 17.416 76.7971 17.9681V17.9681Z" fill="black"/>
<path d="M95.1349 12.1446C94.4904 11.5649 93.736 11.1175 92.9155 10.8285C91.153 10.216 89.2322 10.216 87.4696 10.8285C86.6488 11.1173 85.8941 11.5647 85.2494 12.1446C84.6172 12.7214 84.1121 13.4211 83.7658 14.2C83.4079 15.0497 83.2236 15.9611 83.2236 16.8817C83.2236 17.8023 83.4079 18.7137 83.7658 19.5634C84.1108 20.3445 84.616 21.0462 85.2494 21.6239C85.8935 22.2045 86.6483 22.6517 87.4696 22.9392C89.232 23.5528 91.1532 23.5528 92.9155 22.9392C93.7365 22.6515 94.491 22.2043 95.1349 21.6239C95.7682 21.0462 96.2735 20.3445 96.6185 19.5634C96.9764 18.7137 97.1607 17.8023 97.1607 16.8817C97.1607 15.9611 96.9764 15.0497 96.6185 14.2C96.2722 13.4211 95.7671 12.7214 95.1349 12.1446V12.1446ZM92.4765 19.1556C91.8497 19.7144 91.0359 20.0236 90.1922 20.0236C89.3484 20.0236 88.5346 19.7144 87.9078 19.1556C87.3809 18.5119 87.0934 17.7087 87.0934 16.8804C87.0934 16.0521 87.3809 15.2489 87.9078 14.6053C88.5346 14.0465 89.3484 13.7372 90.1922 13.7372C91.0359 13.7372 91.8497 14.0465 92.4765 14.6053C93.0034 15.2489 93.2909 16.0521 93.2909 16.8804C93.2909 17.7087 93.0034 18.5119 92.4765 19.1556Z" fill="black"/>
<path d="M102.296 10.7617H100.22V23.088H102.296V10.7617Z" fill="black"/>
<path d="M101.258 4.44168C101.057 4.43789 100.857 4.47572 100.671 4.55274C100.485 4.62976 100.318 4.74429 100.18 4.88898C99.9685 5.09959 99.8251 5.36733 99.7675 5.65844C99.71 5.94955 99.7407 6.25101 99.856 6.52484C99.9713 6.79866 100.166 7.03258 100.415 7.19713C100.665 7.36168 100.958 7.44949 101.258 7.44949C101.557 7.44949 101.85 7.36168 102.1 7.19713C102.349 7.03258 102.544 6.79866 102.659 6.52484C102.774 6.25101 102.805 5.94955 102.748 5.65844C102.69 5.36733 102.547 5.09959 102.336 4.88898C102.197 4.74422 102.03 4.62965 101.845 4.55262C101.659 4.47559 101.459 4.4378 101.258 4.44168V4.44168Z" fill="black"/>
<path d="M117.654 12.2929C117.07 11.7028 116.367 11.2404 115.592 10.9355C114.74 10.6034 113.832 10.4381 112.917 10.4487C112.055 10.4389 111.203 10.6286 110.428 11.0025C109.665 11.378 108.989 11.907 108.445 12.5556H108.389V10.7612H106.315V29.0931H108.389V20.9025H108.442C108.883 21.6536 109.525 22.2694 110.298 22.6814C111.195 23.1784 112.21 23.4286 113.238 23.406C114.08 23.4113 114.913 23.2453 115.687 22.9183C116.435 22.6046 117.109 22.143 117.67 21.5618C118.239 20.9679 118.686 20.2705 118.988 19.5082C119.626 17.8451 119.626 16.0079 118.988 14.3448C118.684 13.5808 118.231 12.8835 117.654 12.2929V12.2929ZM116.922 18.732C116.728 19.2687 116.426 19.7604 116.032 20.1767C115.639 20.593 115.164 20.9251 114.636 21.1523C113.468 21.6255 112.159 21.6255 110.992 21.1523C110.463 20.9251 109.987 20.5928 109.593 20.176C109.2 19.7592 108.897 19.2669 108.703 18.7295C108.296 17.5613 108.296 16.2917 108.703 15.1235C108.897 14.5861 109.2 14.0938 109.593 13.677C109.987 13.2602 110.463 12.9279 110.992 12.7007C112.159 12.2275 113.468 12.2275 114.636 12.7007C115.165 12.9279 115.641 13.2602 116.034 13.677C116.428 14.0938 116.731 14.5861 116.924 15.1235C117.332 16.2917 117.332 17.5613 116.924 18.7295L116.922 18.732Z" fill="black"/>
<path d="M129.924 16.929C129.53 16.637 129.09 16.4103 128.623 16.2576C128.109 16.0861 127.584 15.9496 127.052 15.8489C126.653 15.7814 126.258 15.6937 125.868 15.5862C125.52 15.4928 125.182 15.3692 124.856 15.217C124.596 15.0999 124.36 14.9344 124.162 14.7293C123.994 14.5459 123.904 14.3055 123.91 14.058C123.906 13.7908 123.985 13.5288 124.136 13.3076C124.285 13.089 124.48 12.9049 124.708 12.7676C124.951 12.6219 125.217 12.5152 125.494 12.4516C125.778 12.3821 126.069 12.3466 126.362 12.346C126.918 12.3289 127.468 12.4708 127.945 12.7547C128.376 13.0229 128.736 13.3883 128.996 13.821L130.726 12.6886C130.343 11.9401 129.721 11.3379 128.956 10.9758C128.185 10.6215 127.344 10.4417 126.494 10.4495C125.918 10.4481 125.345 10.5279 124.791 10.6864C124.261 10.8361 123.757 11.068 123.3 11.3733C122.862 11.6655 122.498 12.0528 122.235 12.5057C121.963 12.9879 121.825 13.5331 121.836 14.0854C121.815 14.6261 121.938 15.1627 122.195 15.6403C122.43 16.0397 122.757 16.3782 123.15 16.6276C123.583 16.8983 124.054 17.1067 124.547 17.2466C125.079 17.4046 125.638 17.5451 126.224 17.6682C126.561 17.7386 126.89 17.8176 127.208 17.9051C127.507 17.9845 127.794 18.1041 128.06 18.2606C128.295 18.3983 128.499 18.5821 128.659 18.8006C128.819 19.0426 128.898 19.3282 128.885 19.6171C128.895 19.9206 128.812 20.2199 128.646 20.4756C128.481 20.718 128.262 20.9205 128.007 21.068C127.732 21.2308 127.43 21.3469 127.116 21.4115C126.796 21.4808 126.471 21.5162 126.144 21.5171C125.497 21.5418 124.856 21.3866 124.294 21.0689C123.777 20.7433 123.322 20.33 122.95 19.848L121.302 21.1127C121.812 21.8969 122.536 22.522 123.391 22.9156C124.267 23.2596 125.204 23.4255 126.146 23.4033C126.759 23.4038 127.371 23.3332 127.968 23.193C128.535 23.063 129.076 22.8358 129.565 22.5216C130.032 22.2149 130.418 21.803 130.693 21.3196C130.991 20.771 131.138 20.1546 131.12 19.5321C131.136 18.9969 131.027 18.4651 130.8 17.979C130.594 17.5668 130.294 17.2074 129.924 16.929V16.929Z" fill="black"/>
<path d="M144.881 20.1646V10.7617H142.805V16.7716C142.811 17.4195 142.735 18.0657 142.578 18.6947C142.445 19.234 142.21 19.7433 141.884 20.1955C141.575 20.6159 141.163 20.9513 140.686 21.17C140.138 21.4109 139.543 21.5282 138.943 21.5134C138.538 21.5458 138.13 21.4814 137.755 21.3256C137.38 21.1698 137.048 20.9271 136.787 20.6179C136.288 19.8998 136.044 19.0384 136.093 18.1685V10.7617H134.017V18.3736C134.011 19.0637 134.105 19.751 134.296 20.4144C134.463 21.0026 134.76 21.547 135.164 22.0088C135.569 22.4601 136.073 22.8128 136.639 23.039C137.313 23.2992 138.032 23.4247 138.755 23.4082C139.241 23.4121 139.726 23.3453 140.192 23.2099C140.614 23.0884 141.016 22.9114 141.39 22.6836C141.729 22.4766 142.038 22.2241 142.308 21.9332C142.55 21.6744 142.752 21.3813 142.907 21.0635H142.96C142.96 21.4155 142.969 21.7589 142.987 22.0938C143.005 22.4286 143.014 22.7623 143.013 23.0948H144.983C144.983 22.6902 144.965 22.2423 144.93 21.7512C144.894 21.2601 144.878 20.7312 144.881 20.1646Z" fill="black"/>
<path d="M167.319 13.4622C167.18 12.8657 166.907 12.3081 166.52 11.8309C166.129 11.3693 165.625 11.0145 165.056 10.8007C164.34 10.5449 163.582 10.4243 162.82 10.4452C161.994 10.4095 161.176 10.6256 160.478 11.0642C159.831 11.5238 159.287 12.1114 158.882 12.7899C158.775 12.5787 158.637 12.3372 158.469 12.0653C158.28 11.7717 158.042 11.5131 157.763 11.3012C157.421 11.0439 157.041 10.8412 156.635 10.7002C156.091 10.5191 155.519 10.4342 154.944 10.4495C154.458 10.4455 153.974 10.5124 153.508 10.6478C153.086 10.7693 152.683 10.9463 152.31 11.1741C151.97 11.3814 151.661 11.6339 151.392 11.9245C151.149 12.1833 150.948 12.4764 150.793 12.7942H150.739C150.739 12.4422 150.73 12.1005 150.713 11.764C150.696 11.4274 150.686 11.0969 150.686 10.7629H148.717C148.717 11.1675 148.734 11.6154 148.77 12.1065C148.805 12.5976 148.823 13.1245 148.823 13.6871V23.0891H150.901V17.0844C150.894 16.4362 150.97 15.7898 151.127 15.1604C151.259 14.6209 151.495 14.1115 151.821 13.6596C152.13 13.2391 152.542 12.9037 153.018 12.6852C153.567 12.4441 154.162 12.3268 154.762 12.3418C155.118 12.3117 155.475 12.3753 155.797 12.5261C156.12 12.6769 156.396 12.9096 156.598 13.2003C157.044 14.1036 157.237 15.1086 157.158 16.1108V23.0908H159.229V15.9769C159.223 15.4699 159.309 14.966 159.483 14.489C159.637 14.0662 159.872 13.6771 160.177 13.3437C160.464 13.0316 160.813 12.7806 161.202 12.6062C161.595 12.4302 162.021 12.3402 162.453 12.3426C162.965 12.3242 163.475 12.4232 163.943 12.632C164.312 12.8082 164.631 13.0708 164.874 13.3969C165.108 13.7198 165.271 14.0873 165.354 14.4761C165.443 14.8829 165.487 15.298 165.487 15.7142V23.0891H167.558V15.6086C167.566 14.8862 167.486 14.1655 167.319 13.4622Z" fill="black"/>
</svg>
