<svg width="24" height="24" viewBox="0 0 24 24" fill="none" xmlns="http://www.w3.org/2000/svg">
<path d="M16 9.33301C17.1046 9.33301 18 8.43758 18 7.33301C18 6.22844 17.1046 5.33301 16 5.33301C14.8954 5.33301 14 6.22844 14 7.33301C14 8.43758 14.8954 9.33301 16 9.33301Z" stroke="#9A9AB0" stroke-width="2" stroke-linecap="round" stroke-linejoin="round"/>
<path d="M8 14C9.10457 14 10 13.1046 10 12C10 10.8954 9.10457 10 8 10C6.89543 10 6 10.8954 6 12C6 13.1046 6.89543 14 8 14Z" stroke="#9A9AB0" stroke-width="2" stroke-linecap="round" stroke-linejoin="round"/>
<path d="M16 18.667C17.1046 18.667 18 17.7716 18 16.667C18 15.5624 17.1046 14.667 16 14.667C14.8954 14.667 14 15.5624 14 16.667C14 17.7716 14.8954 18.667 16 18.667Z" stroke="#9A9AB0" stroke-width="2" stroke-linecap="round" stroke-linejoin="round"/>
<path d="M9.72656 13.0068L14.2799 15.6602" stroke="#9A9AB0" stroke-width="2" stroke-linecap="round" stroke-linejoin="round"/>
<path d="M14.2732 8.33984L9.72656 10.9932" stroke="#9A9AB0" stroke-width="2" stroke-linecap="round" stroke-linejoin="round"/>
<rect x="0.5" y="0.5" width="23" height="23" rx="3.5" stroke="#9A9AB0"/>
</svg>
